STARTFONT 2.3
FONT -FontForge-Indie Flower-Book-R-Normal--8-80-72-72-P-37-ISO10646-1
SIZE 8 72 72  2
FONTBOUNDINGBOX 10 12 -1 -4
COMMENT "Generated by fontforge, http://fontforge.sourceforge.net"
COMMENT "Copyright (c) 2010, Kimberly Geswein (kimberlygeswein.com)"
STARTPROPERTIES 40
FOUNDRY "FontForge"
FAMILY_NAME "Indie Flower"
WEIGHT_NAME "Book"
SLANT "R"
SETWIDTH_NAME "Normal"
ADD_STYLE_NAME ""
PIXEL_SIZE 8
POINT_SIZE 80
RESOLUTION_X 72
RESOLUTION_Y 72
SPACING "P"
AVERAGE_WIDTH 37
CHARSET_REGISTRY "ISO10646"
CHARSET_ENCODING "1"
FONTNAME_REGISTRY ""
CHARSET_COLLECTIONS "ISO8859-2 ISO8859-9 ISO8859-4 ISO10646-1"
BITS_PER_PIXEL 2
FONT_NAME "IndieFlower"
FACE_NAME "Indie Flower"
COPYRIGHT "Copyright (c) 2010, Kimberly Geswein (kimberlygeswein.com)"
FONT_VERSION "1.001 2010"
FONT_ASCENT 6
FONT_DESCENT 2
UNDERLINE_POSITION -1
UNDERLINE_THICKNESS 1
X_HEIGHT 2
CAP_HEIGHT 3
RAW_ASCENT 799
RAW_DESCENT 200
NORM_SPACE 3
RELATIVE_WEIGHT 40
RELATIVE_SETWIDTH 50
SUPERSCRIPT_X 0
SUPERSCRIPT_Y 3
SUPERSCRIPT_SIZE 5
SUBSCRIPT_X 0
SUBSCRIPT_Y 1
SUBSCRIPT_SIZE 5
AVG_LOWERCASE_WIDTH 36
AVG_UPPERCASE_WIDTH 44
ENDPROPERTIES
CHARS 356
STARTCHAR space
ENCODING 32
SWIDTH 375 0
DWIDTH 3 0
BBX 1 1 0 0
BITMAP
00
ENDCHAR
STARTCHAR exclam
ENCODING 33
SWIDTH 149 0
DWIDTH 1 0
BBX 1 7 0 0
BITMAP
40
40
40
40
40
00
80
ENDCHAR
STARTCHAR quotedbl
ENCODING 34
SWIDTH 234 0
DWIDTH 2 0
BBX 2 2 0 4
BITMAP
50
50
ENDCHAR
STARTCHAR numbersign
ENCODING 35
SWIDTH 768 0
DWIDTH 6 0
BBX 6 4 0 0
BITMAP
0500
5A50
5A90
0540
ENDCHAR
STARTCHAR dollar
ENCODING 36
SWIDTH 581 0
DWIDTH 5 0
BBX 5 7 0 0
BITMAP
0500
1A00
1900
0A00
4840
6940
1900
ENDCHAR
STARTCHAR percent
ENCODING 37
SWIDTH 636 0
DWIDTH 5 0
BBX 5 5 0 0
BITMAP
1100
9100
5440
1540
1240
ENDCHAR
STARTCHAR ampersand
ENCODING 38
SWIDTH 457 0
DWIDTH 4 0
BBX 3 6 0 0
BITMAP
10
20
20
64
54
94
ENDCHAR
STARTCHAR quotesingle
ENCODING 39
SWIDTH 102 0
DWIDTH 1 0
BBX 1 2 0 4
BITMAP
40
40
ENDCHAR
STARTCHAR parenleft
ENCODING 40
SWIDTH 421 0
DWIDTH 3 0
BBX 3 6 0 -1
BITMAP
04
10
40
40
50
10
ENDCHAR
STARTCHAR parenright
ENCODING 41
SWIDTH 290 0
DWIDTH 2 0
BBX 2 6 0 -1
BITMAP
50
20
10
10
50
40
ENDCHAR
STARTCHAR asterisk
ENCODING 42
SWIDTH 412 0
DWIDTH 3 0
BBX 3 3 0 2
BITMAP
54
78
58
ENDCHAR
STARTCHAR plus
ENCODING 43
SWIDTH 459 0
DWIDTH 4 0
BBX 4 3 0 0
BITMAP
10
69
10
ENDCHAR
STARTCHAR comma
ENCODING 44
SWIDTH 130 0
DWIDTH 1 0
BBX 1 3 0 -2
BITMAP
40
40
40
ENDCHAR
STARTCHAR hyphen
ENCODING 45
SWIDTH 375 0
DWIDTH 3 0
BBX 3 1 0 2
BITMAP
54
ENDCHAR
STARTCHAR period
ENCODING 46
SWIDTH 204 0
DWIDTH 2 0
BBX 2 2 0 0
BITMAP
40
90
ENDCHAR
STARTCHAR slash
ENCODING 47
SWIDTH 309 0
DWIDTH 2 0
BBX 3 6 0 0
BITMAP
04
10
10
10
40
40
ENDCHAR
STARTCHAR zero
ENCODING 48
SWIDTH 430 0
DWIDTH 3 0
BBX 4 4 0 0
BITMAP
10
48
45
58
ENDCHAR
STARTCHAR one
ENCODING 49
SWIDTH 318 0
DWIDTH 3 0
BBX 3 5 0 0
BITMAP
04
14
60
50
10
ENDCHAR
STARTCHAR two
ENCODING 50
SWIDTH 497 0
DWIDTH 4 0
BBX 4 5 0 0
BITMAP
04
15
01
04
A9
ENDCHAR
STARTCHAR three
ENCODING 51
SWIDTH 430 0
DWIDTH 3 0
BBX 3 5 0 0
BITMAP
10
54
64
04
58
ENDCHAR
STARTCHAR four
ENCODING 52
SWIDTH 412 0
DWIDTH 3 0
BBX 3 5 0 0
BITMAP
40
40
48
68
04
ENDCHAR
STARTCHAR five
ENCODING 53
SWIDTH 571 0
DWIDTH 5 0
BBX 4 6 0 0
BITMAP
05
15
24
05
01
69
ENDCHAR
STARTCHAR six
ENCODING 54
SWIDTH 440 0
DWIDTH 4 0
BBX 4 5 0 0
BITMAP
14
50
94
45
68
ENDCHAR
STARTCHAR seven
ENCODING 55
SWIDTH 412 0
DWIDTH 3 0
BBX 3 5 0 0
BITMAP
50
14
18
14
10
ENDCHAR
STARTCHAR eight
ENCODING 56
SWIDTH 375 0
DWIDTH 3 0
BBX 3 5 0 0
BITMAP
50
54
60
44
54
ENDCHAR
STARTCHAR nine
ENCODING 57
SWIDTH 300 0
DWIDTH 2 0
BBX 3 5 0 0
BITMAP
50
54
60
10
10
ENDCHAR
STARTCHAR colon
ENCODING 58
SWIDTH 84 0
DWIDTH 1 0
BBX 1 1 0 2
BITMAP
40
ENDCHAR
STARTCHAR semicolon
ENCODING 59
SWIDTH 128 0
DWIDTH 1 0
BBX 1 4 0 -1
BITMAP
40
00
40
80
ENDCHAR
STARTCHAR less
ENCODING 60
SWIDTH 487 0
DWIDTH 4 0
BBX 3 3 0 0
BITMAP
04
50
54
ENDCHAR
STARTCHAR equal
ENCODING 61
SWIDTH 524 0
DWIDTH 4 0
BBX 4 2 0 1
BITMAP
55
55
ENDCHAR
STARTCHAR greater
ENCODING 62
SWIDTH 403 0
DWIDTH 3 0
BBX 3 4 0 0
BITMAP
40
18
14
50
ENDCHAR
STARTCHAR question
ENCODING 63
SWIDTH 272 0
DWIDTH 2 0
BBX 2 7 0 0
BITMAP
50
10
20
50
10
00
10
ENDCHAR
STARTCHAR at
ENCODING 64
SWIDTH 815 0
DWIDTH 7 0
BBX 7 7 0 0
BITMAP
1540
4010
4544
5494
55A0
1400
0550
ENDCHAR
STARTCHAR A
ENCODING 65
SWIDTH 562 0
DWIDTH 5 0
BBX 5 6 0 0
BITMAP
1500
4100
4100
9640
4140
4140
ENDCHAR
STARTCHAR B
ENCODING 66
SWIDTH 741 0
DWIDTH 6 0
BBX 5 6 1 0
BITMAP
6400
4400
5800
1600
1080
2540
ENDCHAR
STARTCHAR C
ENCODING 67
SWIDTH 515 0
DWIDTH 4 0
BBX 4 5 0 0
BITMAP
18
40
40
40
65
ENDCHAR
STARTCHAR D
ENCODING 68
SWIDTH 741 0
DWIDTH 6 0
BBX 6 5 0 0
BITMAP
5900
0450
0410
0410
0980
ENDCHAR
STARTCHAR E
ENCODING 69
SWIDTH 524 0
DWIDTH 4 0
BBX 4 5 0 0
BITMAP
95
40
94
40
69
ENDCHAR
STARTCHAR F
ENCODING 70
SWIDTH 514 0
DWIDTH 4 0
BBX 5 5 0 0
BITMAP
6640
1000
6900
1000
1000
ENDCHAR
STARTCHAR G
ENCODING 71
SWIDTH 571 0
DWIDTH 5 0
BBX 5 5 0 -1
BITMAP
1500
4500
4140
5640
0040
ENDCHAR
STARTCHAR H
ENCODING 72
SWIDTH 524 0
DWIDTH 4 0
BBX 4 5 0 0
BITMAP
41
41
95
81
41
ENDCHAR
STARTCHAR I
ENCODING 73
SWIDTH 167 0
DWIDTH 1 0
BBX 2 4 0 0
BITMAP
40
40
40
50
ENDCHAR
STARTCHAR J
ENCODING 74
SWIDTH 439 0
DWIDTH 4 0
BBX 4 6 0 0
BITMAP
04
04
05
41
41
18
ENDCHAR
STARTCHAR K
ENCODING 75
SWIDTH 468 0
DWIDTH 4 0
BBX 4 5 0 0
BITMAP
44
60
80
60
45
ENDCHAR
STARTCHAR L
ENCODING 76
SWIDTH 346 0
DWIDTH 3 0
BBX 3 4 0 0
BITMAP
40
40
40
64
ENDCHAR
STARTCHAR M
ENCODING 77
SWIDTH 534 0
DWIDTH 4 0
BBX 4 5 0 0
BITMAP
41
6A
41
42
42
ENDCHAR
STARTCHAR N
ENCODING 78
SWIDTH 609 0
DWIDTH 5 0
BBX 5 4 0 0
BITMAP
8100
9040
5040
4A40
ENDCHAR
STARTCHAR O
ENCODING 79
SWIDTH 609 0
DWIDTH 5 0
BBX 5 4 0 0
BITMAP
5500
4140
4040
2540
ENDCHAR
STARTCHAR P
ENCODING 80
SWIDTH 627 0
DWIDTH 5 0
BBX 5 5 0 0
BITMAP
5500
0440
0480
0900
0400
ENDCHAR
STARTCHAR Q
ENCODING 81
SWIDTH 642 0
DWIDTH 5 0
BBX 5 5 0 -1
BITMAP
5600
4040
4440
2B40
0040
ENDCHAR
STARTCHAR R
ENCODING 82
SWIDTH 579 0
DWIDTH 5 0
BBX 4 5 0 0
BITMAP
95
12
25
24
15
ENDCHAR
STARTCHAR S
ENCODING 83
SWIDTH 627 0
DWIDTH 5 0
BBX 5 5 0 0
BITMAP
1500
1000
0500
4140
5540
ENDCHAR
STARTCHAR T
ENCODING 84
SWIDTH 581 0
DWIDTH 5 0
BBX 5 5 0 0
BITMAP
5940
0400
0400
0500
0100
ENDCHAR
STARTCHAR U
ENCODING 85
SWIDTH 571 0
DWIDTH 5 0
BBX 5 4 0 0
BITMAP
4100
4100
4200
2540
ENDCHAR
STARTCHAR V
ENCODING 86
SWIDTH 421 0
DWIDTH 3 0
BBX 3 4 0 0
BITMAP
84
58
24
14
ENDCHAR
STARTCHAR W
ENCODING 87
SWIDTH 703 0
DWIDTH 6 0
BBX 6 4 0 0
BITMAP
4040
4450
4810
6680
ENDCHAR
STARTCHAR X
ENCODING 88
SWIDTH 534 0
DWIDTH 4 0
BBX 4 4 0 0
BITMAP
11
14
24
45
ENDCHAR
STARTCHAR Y
ENCODING 89
SWIDTH 403 0
DWIDTH 3 0
BBX 3 5 0 0
BITMAP
44
68
04
10
10
ENDCHAR
STARTCHAR Z
ENCODING 90
SWIDTH 571 0
DWIDTH 5 0
BBX 5 5 0 0
BITMAP
5400
0400
1900
0400
2640
ENDCHAR
STARTCHAR bracketleft
ENCODING 91
SWIDTH 477 0
DWIDTH 4 0
BBX 4 7 0 -1
BITMAP
15
90
40
40
10
10
25
ENDCHAR
STARTCHAR backslash
ENCODING 92
SWIDTH 430 0
DWIDTH 3 0
BBX 4 4 0 0
BITMAP
40
20
08
05
ENDCHAR
STARTCHAR bracketright
ENCODING 93
SWIDTH 430 0
DWIDTH 3 0
BBX 4 8 0 -1
BITMAP
54
08
04
04
04
05
05
69
ENDCHAR
STARTCHAR asciicircum
ENCODING 94
SWIDTH 375 0
DWIDTH 3 0
BBX 3 2 0 4
BITMAP
20
54
ENDCHAR
STARTCHAR underscore
ENCODING 95
SWIDTH 656 0
DWIDTH 5 0
BBX 5 1 0 0
BITMAP
5680
ENDCHAR
STARTCHAR grave
ENCODING 96
SWIDTH 172 0
DWIDTH 1 0
BBX 1 2 0 3
BITMAP
40
40
ENDCHAR
STARTCHAR a
ENCODING 97
SWIDTH 505 0
DWIDTH 4 0
BBX 4 4 0 0
BITMAP
14
15
42
69
ENDCHAR
STARTCHAR b
ENCODING 98
SWIDTH 497 0
DWIDTH 4 0
BBX 4 5 0 0
BITMAP
40
40
54
41
65
ENDCHAR
STARTCHAR c
ENCODING 99
SWIDTH 449 0
DWIDTH 4 0
BBX 3 4 0 0
BITMAP
14
44
40
54
ENDCHAR
STARTCHAR d
ENCODING 100
SWIDTH 524 0
DWIDTH 4 0
BBX 4 6 0 0
BITMAP
04
01
26
86
87
65
ENDCHAR
STARTCHAR e
ENCODING 101
SWIDTH 515 0
DWIDTH 4 0
BBX 4 4 0 0
BITMAP
58
54
50
65
ENDCHAR
STARTCHAR f
ENCODING 102
SWIDTH 376 0
DWIDTH 3 0
BBX 4 6 0 0
BITMAP
14
11
50
A4
20
14
ENDCHAR
STARTCHAR g
ENCODING 103
SWIDTH 366 0
DWIDTH 3 0
BBX 4 8 -1 -4
BITMAP
04
15
12
1A
01
01
41
29
ENDCHAR
STARTCHAR h
ENCODING 104
SWIDTH 427 0
DWIDTH 3 0
BBX 3 6 0 0
BITMAP
40
40
A4
44
44
44
ENDCHAR
STARTCHAR i
ENCODING 105
SWIDTH 174 0
DWIDTH 1 0
BBX 2 5 0 0
BITMAP
40
40
40
40
50
ENDCHAR
STARTCHAR j
ENCODING 106
SWIDTH 200 0
DWIDTH 2 0
BBX 3 9 -1 -4
BITMAP
10
00
10
04
08
08
44
54
14
ENDCHAR
STARTCHAR k
ENCODING 107
SWIDTH 403 0
DWIDTH 3 0
BBX 3 5 0 0
BITMAP
40
44
50
90
58
ENDCHAR
STARTCHAR l
ENCODING 108
SWIDTH 120 0
DWIDTH 1 0
BBX 1 5 0 0
BITMAP
40
40
80
80
40
ENDCHAR
STARTCHAR m
ENCODING 109
SWIDTH 750 0
DWIDTH 6 0
BBX 6 4 0 0
BITMAP
0040
9A50
4410
4010
ENDCHAR
STARTCHAR n
ENCODING 110
SWIDTH 459 0
DWIDTH 4 0
BBX 4 4 0 0
BITMAP
14
84
81
41
ENDCHAR
STARTCHAR o
ENCODING 111
SWIDTH 487 0
DWIDTH 4 0
BBX 4 4 0 0
BITMAP
04
55
41
59
ENDCHAR
STARTCHAR p
ENCODING 112
SWIDTH 520 0
DWIDTH 4 0
BBX 4 6 0 -3
BITMAP
15
81
95
80
50
10
ENDCHAR
STARTCHAR q
ENCODING 113
SWIDTH 412 0
DWIDTH 3 0
BBX 3 7 0 -3
BITMAP
58
48
48
68
04
04
04
ENDCHAR
STARTCHAR r
ENCODING 114
SWIDTH 346 0
DWIDTH 3 0
BBX 3 4 0 0
BITMAP
54
40
40
40
ENDCHAR
STARTCHAR s
ENCODING 115
SWIDTH 514 0
DWIDTH 4 0
BBX 4 4 0 0
BITMAP
54
44
15
56
ENDCHAR
STARTCHAR t
ENCODING 116
SWIDTH 328 0
DWIDTH 3 0
BBX 2 5 0 0
BITMAP
10
20
60
20
10
ENDCHAR
STARTCHAR u
ENCODING 117
SWIDTH 501 0
DWIDTH 4 0
BBX 4 4 0 0
BITMAP
40
41
45
15
ENDCHAR
STARTCHAR v
ENCODING 118
SWIDTH 389 0
DWIDTH 3 0
BBX 3 3 0 0
BITMAP
44
54
20
ENDCHAR
STARTCHAR w
ENCODING 119
SWIDTH 656 0
DWIDTH 5 0
BBX 5 3 0 0
BITMAP
4440
4840
6A80
ENDCHAR
STARTCHAR x
ENCODING 120
SWIDTH 448 0
DWIDTH 4 0
BBX 4 3 0 0
BITMAP
85
30
48
ENDCHAR
STARTCHAR y
ENCODING 121
SWIDTH 487 0
DWIDTH 4 0
BBX 4 7 0 -4
BITMAP
41
42
16
01
01
41
28
ENDCHAR
STARTCHAR z
ENCODING 122
SWIDTH 459 0
DWIDTH 4 0
BBX 4 4 0 0
BITMAP
54
18
60
69
ENDCHAR
STARTCHAR braceleft
ENCODING 123
SWIDTH 393 0
DWIDTH 3 0
BBX 3 8 0 -1
BITMAP
54
40
40
24
44
10
40
24
ENDCHAR
STARTCHAR bar
ENCODING 124
SWIDTH 149 0
DWIDTH 1 0
BBX 1 5 0 0
BITMAP
40
40
40
40
40
ENDCHAR
STARTCHAR braceright
ENCODING 125
SWIDTH 440 0
DWIDTH 4 0
BBX 4 10 0 -2
BITMAP
54
48
14
10
24
10
04
04
05
54
ENDCHAR
STARTCHAR asciitilde
ENCODING 126
SWIDTH 402 0
DWIDTH 3 0
BBX 3 2 0 3
BITMAP
40
54
ENDCHAR
STARTCHAR nonbreakingspace
ENCODING 160
SWIDTH 375 0
DWIDTH 3 0
BBX 1 1 0 0
BITMAP
00
ENDCHAR
STARTCHAR exclamdown
ENCODING 161
SWIDTH 149 0
DWIDTH 1 0
BBX 1 6 0 0
BITMAP
40
40
40
40
40
40
ENDCHAR
STARTCHAR cent
ENCODING 162
SWIDTH 449 0
DWIDTH 4 0
BBX 3 4 0 0
BITMAP
24
54
54
68
ENDCHAR
STARTCHAR sterling
ENCODING 163
SWIDTH 758 0
DWIDTH 6 0
BBX 6 6 0 0
BITMAP
0150
0110
1A40
0400
0400
BA00
ENDCHAR
STARTCHAR currency
ENCODING 164
SWIDTH 618 0
DWIDTH 5 0
BBX 5 4 0 0
BITMAP
6A40
1040
1100
5500
ENDCHAR
STARTCHAR yen
ENCODING 165
SWIDTH 389 0
DWIDTH 3 0
BBX 3 6 0 0
BITMAP
44
18
24
64
64
20
ENDCHAR
STARTCHAR brokenbar
ENCODING 166
SWIDTH 117 0
DWIDTH 1 0
BBX 1 5 0 0
BITMAP
40
40
40
40
40
ENDCHAR
STARTCHAR section
ENCODING 167
SWIDTH 514 0
DWIDTH 4 0
BBX 4 6 0 0
BITMAP
10
55
65
82
16
56
ENDCHAR
STARTCHAR dieresis
ENCODING 168
SWIDTH 397 0
DWIDTH 3 0
BBX 3 1 0 3
BITMAP
54
ENDCHAR
STARTCHAR copyright
ENCODING 169
SWIDTH 667 0
DWIDTH 5 0
BBX 6 5 0 0
BITMAP
1500
5640
5140
5550
2A40
ENDCHAR
STARTCHAR ordfeminine
ENCODING 170
SWIDTH 266 0
DWIDTH 2 0
BBX 2 2 0 2
BITMAP
10
50
ENDCHAR
STARTCHAR guillemotleft
ENCODING 171
SWIDTH 755 0
DWIDTH 6 0
BBX 6 4 0 0
BITMAP
0050
0A40
5940
5540
ENDCHAR
STARTCHAR logicalnot
ENCODING 172
SWIDTH 369 0
DWIDTH 3 0
BBX 3 2 0 2
BITMAP
10
54
ENDCHAR
STARTCHAR hyphen_
ENCODING 173
SWIDTH 375 0
DWIDTH 3 0
BBX 3 1 0 2
BITMAP
54
ENDCHAR
STARTCHAR registered
ENCODING 174
SWIDTH 708 0
DWIDTH 6 0
BBX 5 5 0 0
BITMAP
1500
5640
4A40
4940
2640
ENDCHAR
STARTCHAR macron
ENCODING 175
SWIDTH 287 0
DWIDTH 2 0
BBX 2 2 0 3
BITMAP
10
40
ENDCHAR
STARTCHAR degree
ENCODING 176
SWIDTH 254 0
DWIDTH 2 0
BBX 2 3 0 2
BITMAP
40
50
50
ENDCHAR
STARTCHAR plusminus
ENCODING 177
SWIDTH 459 0
DWIDTH 4 0
BBX 4 4 0 0
BITMAP
10
69
14
54
ENDCHAR
STARTCHAR twosuperior
ENCODING 178
SWIDTH 296 0
DWIDTH 2 0
BBX 2 3 0 1
BITMAP
10
50
10
ENDCHAR
STARTCHAR threesuperior
ENCODING 179
SWIDTH 204 0
DWIDTH 2 0
BBX 2 3 0 2
BITMAP
40
50
50
ENDCHAR
STARTCHAR acute
ENCODING 180
SWIDTH 180 0
DWIDTH 1 0
BBX 1 1 0 3
BITMAP
40
ENDCHAR
STARTCHAR mu
ENCODING 181
SWIDTH 501 0
DWIDTH 4 0
BBX 4 5 0 -1
BITMAP
40
41
85
A5
40
ENDCHAR
STARTCHAR paragraph
ENCODING 182
SWIDTH 413 0
DWIDTH 3 0
BBX 3 4 0 0
BITMAP
B8
B8
18
18
ENDCHAR
STARTCHAR periodcentered
ENCODING 183
SWIDTH 212 0
DWIDTH 2 0
BBX 1 1 0 1
BITMAP
40
ENDCHAR
STARTCHAR cedilla
ENCODING 184
SWIDTH 445 0
DWIDTH 4 0
BBX 3 3 1 -3
BITMAP
40
54
10
ENDCHAR
STARTCHAR onesuperior
ENCODING 185
SWIDTH 197 0
DWIDTH 2 0
BBX 2 3 0 2
BITMAP
10
50
40
ENDCHAR
STARTCHAR ordmasculine
ENCODING 186
SWIDTH 254 0
DWIDTH 2 0
BBX 2 3 0 2
BITMAP
40
50
50
ENDCHAR
STARTCHAR guillemotright
ENCODING 187
SWIDTH 659 0
DWIDTH 5 0
BBX 5 4 0 0
BITMAP
4500
1980
1540
5400
ENDCHAR
STARTCHAR onequarter
ENCODING 188
SWIDTH 626 0
DWIDTH 5 0
BBX 5 6 0 0
BITMAP
0400
1400
5400
1400
1540
1140
ENDCHAR
STARTCHAR onehalf
ENCODING 189
SWIDTH 566 0
DWIDTH 5 0
BBX 4 6 0 0
BITMAP
04
14
54
25
11
1A
ENDCHAR
STARTCHAR threequarters
ENCODING 190
SWIDTH 566 0
DWIDTH 5 0
BBX 5 6 0 -1
BITMAP
5400
5400
5800
1540
1040
1000
ENDCHAR
STARTCHAR questiondown
ENCODING 191
SWIDTH 272 0
DWIDTH 2 0
BBX 2 6 0 0
BITMAP
40
00
50
50
80
50
ENDCHAR
STARTCHAR Agrave
ENCODING 192
SWIDTH 562 0
DWIDTH 5 0
BBX 5 7 0 0
BITMAP
0400
1500
4100
4100
9640
4140
4140
ENDCHAR
STARTCHAR Aacute
ENCODING 193
SWIDTH 562 0
DWIDTH 5 0
BBX 5 7 0 0
BITMAP
1000
1500
4100
4100
9640
4140
4140
ENDCHAR
STARTCHAR Acircumflex
ENCODING 194
SWIDTH 562 0
DWIDTH 5 0
BBX 5 8 0 0
BITMAP
1400
1800
1500
4100
4100
9640
4140
4140
ENDCHAR
STARTCHAR Atilde
ENCODING 195
SWIDTH 562 0
DWIDTH 5 0
BBX 5 7 0 0
BITMAP
5400
1500
4100
4100
9640
4140
4140
ENDCHAR
STARTCHAR Adieresis
ENCODING 196
SWIDTH 562 0
DWIDTH 5 0
BBX 5 7 0 0
BITMAP
1400
1500
4100
4100
9640
4140
4140
ENDCHAR
STARTCHAR Aring
ENCODING 197
SWIDTH 562 0
DWIDTH 5 0
BBX 5 7 0 0
BITMAP
1400
1500
4100
4100
9640
4140
4140
ENDCHAR
STARTCHAR AE
ENCODING 198
SWIDTH 960 0
DWIDTH 8 0
BBX 8 6 0 0
BITMAP
1500
4194
4140
9694
4140
41A9
ENDCHAR
STARTCHAR Ccedilla
ENCODING 199
SWIDTH 515 0
DWIDTH 4 0
BBX 4 8 0 -3
BITMAP
18
40
40
40
65
10
14
14
ENDCHAR
STARTCHAR Egrave
ENCODING 200
SWIDTH 524 0
DWIDTH 4 0
BBX 4 6 0 0
BITMAP
04
95
40
94
40
69
ENDCHAR
STARTCHAR Eacute
ENCODING 201
SWIDTH 524 0
DWIDTH 4 0
BBX 4 6 0 0
BITMAP
10
95
40
94
40
69
ENDCHAR
STARTCHAR Ecircumflex
ENCODING 202
SWIDTH 524 0
DWIDTH 4 0
BBX 4 7 0 0
BITMAP
18
14
95
40
94
40
69
ENDCHAR
STARTCHAR Edieresis
ENCODING 203
SWIDTH 524 0
DWIDTH 4 0
BBX 4 6 0 0
BITMAP
14
95
40
94
40
69
ENDCHAR
STARTCHAR Igrave
ENCODING 204
SWIDTH 167 0
DWIDTH 1 0
BBX 2 6 0 0
BITMAP
40
00
40
40
40
50
ENDCHAR
STARTCHAR Iacute
ENCODING 205
SWIDTH 167 0
DWIDTH 1 0
BBX 2 6 0 0
BITMAP
40
40
40
40
40
50
ENDCHAR
STARTCHAR Icircumflex
ENCODING 206
SWIDTH 167 0
DWIDTH 1 0
BBX 2 7 0 0
BITMAP
90
50
00
40
40
40
50
ENDCHAR
STARTCHAR Idieresis
ENCODING 207
SWIDTH 167 0
DWIDTH 1 0
BBX 3 6 -1 0
BITMAP
50
10
10
10
10
14
ENDCHAR
STARTCHAR Eth
ENCODING 208
SWIDTH 741 0
DWIDTH 6 0
BBX 6 5 0 0
BITMAP
5900
0450
0910
0410
0980
ENDCHAR
STARTCHAR Ntilde
ENCODING 209
SWIDTH 609 0
DWIDTH 5 0
BBX 5 6 0 0
BITMAP
1500
1000
8100
9040
5040
4A40
ENDCHAR
STARTCHAR Ograve
ENCODING 210
SWIDTH 609 0
DWIDTH 5 0
BBX 5 6 0 0
BITMAP
0400
0000
5500
4140
4040
2540
ENDCHAR
STARTCHAR Oacute
ENCODING 211
SWIDTH 609 0
DWIDTH 5 0
BBX 5 6 0 0
BITMAP
0400
0000
5500
4140
4040
2540
ENDCHAR
STARTCHAR Ocircumflex
ENCODING 212
SWIDTH 609 0
DWIDTH 5 0
BBX 5 6 0 0
BITMAP
2400
0400
5500
4140
4040
2540
ENDCHAR
STARTCHAR Otilde
ENCODING 213
SWIDTH 609 0
DWIDTH 5 0
BBX 5 5 0 0
BITMAP
5400
5500
4140
4040
2540
ENDCHAR
STARTCHAR Odieresis
ENCODING 214
SWIDTH 609 0
DWIDTH 5 0
BBX 5 6 0 0
BITMAP
1000
1000
5500
4140
4040
2540
ENDCHAR
STARTCHAR multiply
ENCODING 215
SWIDTH 448 0
DWIDTH 4 0
BBX 3 3 0 0
BITMAP
44
30
04
ENDCHAR
STARTCHAR Oslash
ENCODING 216
SWIDTH 609 0
DWIDTH 5 0
BBX 5 6 0 -1
BITMAP
0500
5900
4540
5440
2540
1000
ENDCHAR
STARTCHAR Ugrave
ENCODING 217
SWIDTH 571 0
DWIDTH 5 0
BBX 5 6 0 0
BITMAP
0400
0000
4100
4100
4200
2540
ENDCHAR
STARTCHAR Uacute
ENCODING 218
SWIDTH 571 0
DWIDTH 5 0
BBX 5 6 0 0
BITMAP
0400
1000
4100
4100
4200
2540
ENDCHAR
STARTCHAR Ucircumflex
ENCODING 219
SWIDTH 571 0
DWIDTH 5 0
BBX 5 7 0 0
BITMAP
0800
1100
0000
4100
4100
4200
2540
ENDCHAR
STARTCHAR Udieresis
ENCODING 220
SWIDTH 571 0
DWIDTH 5 0
BBX 5 6 0 0
BITMAP
1000
1000
4100
4100
4200
2540
ENDCHAR
STARTCHAR Yacute
ENCODING 221
SWIDTH 403 0
DWIDTH 3 0
BBX 3 7 0 0
BITMAP
04
10
44
68
04
10
10
ENDCHAR
STARTCHAR Thorn
ENCODING 222
SWIDTH 497 0
DWIDTH 4 0
BBX 4 6 0 -1
BITMAP
40
40
94
81
65
40
ENDCHAR
STARTCHAR germandbls
ENCODING 223
SWIDTH 590 0
DWIDTH 5 0
BBX 5 7 0 -1
BITMAP
5000
8400
5800
4500
4040
5540
4000
ENDCHAR
STARTCHAR agrave
ENCODING 224
SWIDTH 505 0
DWIDTH 4 0
BBX 4 5 0 0
BITMAP
14
14
15
42
69
ENDCHAR
STARTCHAR aacute
ENCODING 225
SWIDTH 505 0
DWIDTH 4 0
BBX 4 5 0 0
BITMAP
10
14
15
42
69
ENDCHAR
STARTCHAR acircumflex
ENCODING 226
SWIDTH 505 0
DWIDTH 4 0
BBX 4 6 0 0
BITMAP
14
14
14
15
42
69
ENDCHAR
STARTCHAR atilde
ENCODING 227
SWIDTH 505 0
DWIDTH 4 0
BBX 4 6 0 0
BITMAP
14
44
14
15
42
69
ENDCHAR
STARTCHAR adieresis
ENCODING 228
SWIDTH 505 0
DWIDTH 4 0
BBX 4 5 0 0
BITMAP
14
14
15
42
69
ENDCHAR
STARTCHAR aring
ENCODING 229
SWIDTH 505 0
DWIDTH 4 0
BBX 4 5 0 0
BITMAP
14
18
15
42
69
ENDCHAR
STARTCHAR ae
ENCODING 230
SWIDTH 881 0
DWIDTH 7 0
BBX 7 4 0 0
BITMAP
1550
1620
4240
6A54
ENDCHAR
STARTCHAR ccedilla
ENCODING 231
SWIDTH 449 0
DWIDTH 4 0
BBX 3 7 0 -3
BITMAP
14
44
40
64
10
14
14
ENDCHAR
STARTCHAR egrave
ENCODING 232
SWIDTH 515 0
DWIDTH 4 0
BBX 4 5 0 0
BITMAP
10
58
54
50
65
ENDCHAR
STARTCHAR eacute
ENCODING 233
SWIDTH 515 0
DWIDTH 4 0
BBX 4 5 0 0
BITMAP
10
58
54
50
65
ENDCHAR
STARTCHAR ecircumflex
ENCODING 234
SWIDTH 515 0
DWIDTH 4 0
BBX 4 6 0 0
BITMAP
04
14
58
54
50
65
ENDCHAR
STARTCHAR edieresis
ENCODING 235
SWIDTH 515 0
DWIDTH 4 0
BBX 4 5 0 0
BITMAP
14
58
54
50
65
ENDCHAR
STARTCHAR igrave
ENCODING 236
SWIDTH 174 0
DWIDTH 1 0
BBX 2 5 0 0
BITMAP
40
40
40
40
50
ENDCHAR
STARTCHAR iacute
ENCODING 237
SWIDTH 174 0
DWIDTH 1 0
BBX 2 5 0 0
BITMAP
40
40
40
40
50
ENDCHAR
STARTCHAR icircumflex
ENCODING 238
SWIDTH 174 0
DWIDTH 1 0
BBX 2 6 0 0
BITMAP
50
50
40
40
40
50
ENDCHAR
STARTCHAR idieresis
ENCODING 239
SWIDTH 174 0
DWIDTH 1 0
BBX 3 5 -1 0
BITMAP
54
10
10
10
14
ENDCHAR
STARTCHAR eth
ENCODING 240
SWIDTH 407 0
DWIDTH 3 0
BBX 3 4 0 0
BITMAP
68
28
44
58
ENDCHAR
STARTCHAR ntilde
ENCODING 241
SWIDTH 459 0
DWIDTH 4 0
BBX 4 5 0 0
BITMAP
54
14
84
81
41
ENDCHAR
STARTCHAR ograve
ENCODING 242
SWIDTH 487 0
DWIDTH 4 0
BBX 4 4 0 0
BITMAP
14
55
41
59
ENDCHAR
STARTCHAR oacute
ENCODING 243
SWIDTH 487 0
DWIDTH 4 0
BBX 4 5 0 0
BITMAP
14
14
55
41
59
ENDCHAR
STARTCHAR ocircumflex
ENCODING 244
SWIDTH 487 0
DWIDTH 4 0
BBX 4 5 0 0
BITMAP
28
14
55
41
59
ENDCHAR
STARTCHAR otilde
ENCODING 245
SWIDTH 487 0
DWIDTH 4 0
BBX 4 5 0 0
BITMAP
10
58
55
41
59
ENDCHAR
STARTCHAR odieresis
ENCODING 246
SWIDTH 487 0
DWIDTH 4 0
BBX 4 4 0 0
BITMAP
28
55
41
59
ENDCHAR
STARTCHAR divide
ENCODING 247
SWIDTH 335 0
DWIDTH 3 0
BBX 2 2 0 1
BITMAP
10
50
ENDCHAR
STARTCHAR oslash
ENCODING 248
SWIDTH 487 0
DWIDTH 4 0
BBX 4 4 0 0
BITMAP
04
59
61
69
ENDCHAR
STARTCHAR ugrave
ENCODING 249
SWIDTH 501 0
DWIDTH 4 0
BBX 4 6 0 0
BITMAP
10
10
40
41
45
15
ENDCHAR
STARTCHAR uacute
ENCODING 250
SWIDTH 501 0
DWIDTH 4 0
BBX 4 5 0 0
BITMAP
10
40
41
45
15
ENDCHAR
STARTCHAR ucircumflex
ENCODING 251
SWIDTH 501 0
DWIDTH 4 0
BBX 4 6 0 0
BITMAP
14
14
40
41
45
15
ENDCHAR
STARTCHAR udieresis
ENCODING 252
SWIDTH 501 0
DWIDTH 4 0
BBX 4 5 0 0
BITMAP
14
40
41
45
15
ENDCHAR
STARTCHAR yacute
ENCODING 253
SWIDTH 487 0
DWIDTH 4 0
BBX 4 9 0 -4
BITMAP
10
00
41
42
16
01
01
41
28
ENDCHAR
STARTCHAR thorn
ENCODING 254
SWIDTH 520 0
DWIDTH 4 0
BBX 4 6 0 -2
BITMAP
40
95
82
95
40
40
ENDCHAR
STARTCHAR ydieresis
ENCODING 255
SWIDTH 487 0
DWIDTH 4 0
BBX 4 9 0 -4
BITMAP
14
00
41
42
16
01
01
41
28
ENDCHAR
STARTCHAR Amacron
ENCODING 256
SWIDTH 562 0
DWIDTH 5 0
BBX 5 7 0 0
BITMAP
1400
1500
4100
4100
9640
4140
4140
ENDCHAR
STARTCHAR amacron
ENCODING 257
SWIDTH 505 0
DWIDTH 4 0
BBX 4 5 0 0
BITMAP
14
14
15
42
69
ENDCHAR
STARTCHAR Abreve
ENCODING 258
SWIDTH 562 0
DWIDTH 5 0
BBX 5 8 0 0
BITMAP
0400
0400
1500
4100
4100
9640
4140
4140
ENDCHAR
STARTCHAR abreve
ENCODING 259
SWIDTH 505 0
DWIDTH 4 0
BBX 4 5 0 0
BITMAP
14
14
15
42
69
ENDCHAR
STARTCHAR Aogonek
ENCODING 260
SWIDTH 562 0
DWIDTH 5 0
BBX 5 7 0 -1
BITMAP
1500
4100
4100
9640
4140
4140
0200
ENDCHAR
STARTCHAR aogonek
ENCODING 261
SWIDTH 505 0
DWIDTH 4 0
BBX 4 5 0 -1
BITMAP
14
15
42
69
05
ENDCHAR
STARTCHAR Cacute
ENCODING 262
SWIDTH 515 0
DWIDTH 4 0
BBX 4 7 0 0
BITMAP
04
04
18
40
40
40
65
ENDCHAR
STARTCHAR cacute
ENCODING 263
SWIDTH 449 0
DWIDTH 4 0
BBX 3 5 0 0
BITMAP
14
14
44
40
54
ENDCHAR
STARTCHAR Ccircumflex
ENCODING 264
SWIDTH 515 0
DWIDTH 4 0
BBX 4 7 0 0
BITMAP
18
14
18
40
40
40
65
ENDCHAR
STARTCHAR ccircumflex
ENCODING 265
SWIDTH 449 0
DWIDTH 4 0
BBX 3 6 0 0
BITMAP
14
14
14
44
40
54
ENDCHAR
STARTCHAR Cdotaccent
ENCODING 266
SWIDTH 515 0
DWIDTH 4 0
BBX 4 6 0 0
BITMAP
04
18
40
40
40
65
ENDCHAR
STARTCHAR cdotaccent
ENCODING 267
SWIDTH 449 0
DWIDTH 4 0
BBX 3 5 0 0
BITMAP
10
14
44
40
54
ENDCHAR
STARTCHAR Ccaron
ENCODING 268
SWIDTH 515 0
DWIDTH 4 0
BBX 4 7 0 0
BITMAP
15
04
18
40
40
40
65
ENDCHAR
STARTCHAR ccaron
ENCODING 269
SWIDTH 449 0
DWIDTH 4 0
BBX 3 5 0 0
BITMAP
14
14
44
40
54
ENDCHAR
STARTCHAR Dcaron
ENCODING 270
SWIDTH 741 0
DWIDTH 6 0
BBX 6 6 0 0
BITMAP
0500
5900
0450
0410
0410
0980
ENDCHAR
STARTCHAR dcaron
ENCODING 271
SWIDTH 582 0
DWIDTH 5 0
BBX 5 6 0 0
BITMAP
0440
0140
2600
8600
8700
6500
ENDCHAR
STARTCHAR Dcroat
ENCODING 272
SWIDTH 741 0
DWIDTH 6 0
BBX 6 5 0 0
BITMAP
5900
0450
0910
0410
0980
ENDCHAR
STARTCHAR dcroat
ENCODING 273
SWIDTH 524 0
DWIDTH 4 0
BBX 4 6 0 0
BITMAP
04
0A
26
86
87
65
ENDCHAR
STARTCHAR Emacron
ENCODING 274
SWIDTH 524 0
DWIDTH 4 0
BBX 4 6 0 0
BITMAP
14
95
40
94
40
69
ENDCHAR
STARTCHAR emacron
ENCODING 275
SWIDTH 515 0
DWIDTH 4 0
BBX 4 6 0 0
BITMAP
04
14
58
54
50
65
ENDCHAR
STARTCHAR Ebreve
ENCODING 276
SWIDTH 524 0
DWIDTH 4 0
BBX 4 6 0 0
BITMAP
14
95
40
94
40
69
ENDCHAR
STARTCHAR ebreve
ENCODING 277
SWIDTH 515 0
DWIDTH 4 0
BBX 4 5 0 0
BITMAP
04
58
54
50
65
ENDCHAR
STARTCHAR Edotaccent
ENCODING 278
SWIDTH 524 0
DWIDTH 4 0
BBX 4 5 0 0
BITMAP
95
40
94
40
69
ENDCHAR
STARTCHAR edotaccent
ENCODING 279
SWIDTH 515 0
DWIDTH 4 0
BBX 4 5 0 0
BITMAP
10
58
54
50
65
ENDCHAR
STARTCHAR Eogonek
ENCODING 280
SWIDTH 524 0
DWIDTH 4 0
BBX 4 6 0 -1
BITMAP
95
40
94
40
69
08
ENDCHAR
STARTCHAR eogonek
ENCODING 281
SWIDTH 515 0
DWIDTH 4 0
BBX 4 5 0 -1
BITMAP
58
54
50
69
08
ENDCHAR
STARTCHAR Ecaron
ENCODING 282
SWIDTH 524 0
DWIDTH 4 0
BBX 4 6 0 0
BITMAP
18
95
40
94
40
69
ENDCHAR
STARTCHAR ecaron
ENCODING 283
SWIDTH 515 0
DWIDTH 4 0
BBX 4 6 0 0
BITMAP
14
04
58
54
50
65
ENDCHAR
STARTCHAR Gcircumflex
ENCODING 284
SWIDTH 571 0
DWIDTH 5 0
BBX 5 7 0 -1
BITMAP
0600
0100
1500
4500
4140
5640
0040
ENDCHAR
STARTCHAR gcircumflex
ENCODING 285
SWIDTH 366 0
DWIDTH 3 0
BBX 4 10 -1 -4
BITMAP
08
15
04
15
12
1A
01
01
41
29
ENDCHAR
STARTCHAR Gbreve
ENCODING 286
SWIDTH 571 0
DWIDTH 5 0
BBX 5 6 0 -1
BITMAP
0400
1500
4500
4140
5640
0040
ENDCHAR
STARTCHAR gbreve
ENCODING 287
SWIDTH 366 0
DWIDTH 3 0
BBX 4 8 -1 -4
BITMAP
04
15
12
1A
01
01
41
29
ENDCHAR
STARTCHAR Gdotaccent
ENCODING 288
SWIDTH 571 0
DWIDTH 5 0
BBX 5 6 0 -1
BITMAP
0400
1500
4500
4140
5640
0040
ENDCHAR
STARTCHAR gdotaccent
ENCODING 289
SWIDTH 366 0
DWIDTH 3 0
BBX 4 9 -1 -4
BITMAP
04
04
15
12
1A
01
01
41
29
ENDCHAR
STARTCHAR Gcommaaccent
ENCODING 290
SWIDTH 571 0
DWIDTH 5 0
BBX 5 7 0 -3
BITMAP
1500
4500
4140
5640
0040
0400
0400
ENDCHAR
STARTCHAR gcommaaccent
ENCODING 291
SWIDTH 366 0
DWIDTH 3 0
BBX 4 11 -1 -4
BITMAP
04
04
00
04
15
12
1A
01
01
41
29
ENDCHAR
STARTCHAR Hcircumflex
ENCODING 292
SWIDTH 524 0
DWIDTH 4 0
BBX 4 8 0 0
BITMAP
04
18
00
41
41
95
81
41
ENDCHAR
STARTCHAR hcircumflex
ENCODING 293
SWIDTH 427 0
DWIDTH 3 0
BBX 3 6 0 0
BITMAP
68
80
A4
44
44
44
ENDCHAR
STARTCHAR hbar
ENCODING 295
SWIDTH 427 0
DWIDTH 3 0
BBX 4 6 -1 0
BITMAP
10
60
29
11
11
11
ENDCHAR
STARTCHAR Itilde
ENCODING 296
SWIDTH 167 0
DWIDTH 1 0
BBX 3 6 -1 0
BITMAP
54
54
10
10
10
14
ENDCHAR
STARTCHAR itilde
ENCODING 297
SWIDTH 174 0
DWIDTH 1 0
BBX 3 5 -1 0
BITMAP
54
10
10
10
14
ENDCHAR
STARTCHAR imacron
ENCODING 299
SWIDTH 174 0
DWIDTH 1 0
BBX 2 5 0 0
BITMAP
50
40
40
40
50
ENDCHAR
STARTCHAR Ibreve
ENCODING 300
SWIDTH 167 0
DWIDTH 1 0
BBX 2 6 0 0
BITMAP
50
00
40
40
40
50
ENDCHAR
STARTCHAR ibreve
ENCODING 301
SWIDTH 174 0
DWIDTH 1 0
BBX 2 5 0 0
BITMAP
40
40
40
40
50
ENDCHAR
STARTCHAR Iogonek
ENCODING 302
SWIDTH 167 0
DWIDTH 1 0
BBX 2 5 0 -1
BITMAP
40
40
40
50
80
ENDCHAR
STARTCHAR iogonek
ENCODING 303
SWIDTH 174 0
DWIDTH 1 0
BBX 2 6 0 -1
BITMAP
40
40
40
40
50
80
ENDCHAR
STARTCHAR Idotaccent
ENCODING 304
SWIDTH 167 0
DWIDTH 1 0
BBX 2 6 0 0
BITMAP
40
00
40
40
40
50
ENDCHAR
STARTCHAR dotlessi
ENCODING 305
SWIDTH 174 0
DWIDTH 1 0
BBX 2 4 0 0
BITMAP
40
40
40
50
ENDCHAR
STARTCHAR Jcircumflex
ENCODING 308
SWIDTH 439 0
DWIDTH 4 0
BBX 4 8 0 0
BITMAP
04
15
04
04
05
41
41
18
ENDCHAR
STARTCHAR jcircumflex
ENCODING 309
SWIDTH 200 0
DWIDTH 2 0
BBX 3 10 -1 -4
BITMAP
14
14
00
10
04
08
08
44
54
14
ENDCHAR
STARTCHAR Kcommaaccent
ENCODING 310
SWIDTH 468 0
DWIDTH 4 0
BBX 4 8 0 -3
BITMAP
44
60
80
60
45
00
10
10
ENDCHAR
STARTCHAR kcommaaccent
ENCODING 311
SWIDTH 403 0
DWIDTH 3 0
BBX 3 8 0 -3
BITMAP
40
44
50
90
58
00
10
10
ENDCHAR
STARTCHAR Lacute
ENCODING 313
SWIDTH 346 0
DWIDTH 3 0
BBX 3 6 0 0
BITMAP
10
00
40
40
40
64
ENDCHAR
STARTCHAR lacute
ENCODING 314
SWIDTH 120 0
DWIDTH 1 0
BBX 1 6 0 0
BITMAP
40
40
40
80
80
40
ENDCHAR
STARTCHAR Lcommaaccent
ENCODING 315
SWIDTH 346 0
DWIDTH 3 0
BBX 3 7 0 -3
BITMAP
40
40
40
64
00
10
10
ENDCHAR
STARTCHAR lcommaaccent
ENCODING 316
SWIDTH 120 0
DWIDTH 1 0
BBX 1 8 0 -3
BITMAP
40
40
80
80
40
00
40
40
ENDCHAR
STARTCHAR Lcaron
ENCODING 317
SWIDTH 346 0
DWIDTH 3 0
BBX 3 6 0 0
BITMAP
10
10
40
40
40
64
ENDCHAR
STARTCHAR lcaron
ENCODING 318
SWIDTH 222 0
DWIDTH 2 0
BBX 2 6 0 0
BITMAP
10
50
40
80
80
40
ENDCHAR
STARTCHAR Ldot
ENCODING 319
SWIDTH 346 0
DWIDTH 3 0
BBX 3 4 0 0
BITMAP
40
50
50
64
ENDCHAR
STARTCHAR ldot
ENCODING 320
SWIDTH 333 0
DWIDTH 3 0
BBX 2 5 0 0
BITMAP
40
40
80
90
40
ENDCHAR
STARTCHAR Lslash
ENCODING 321
SWIDTH 346 0
DWIDTH 3 0
BBX 3 4 0 0
BITMAP
40
50
80
64
ENDCHAR
STARTCHAR lslash
ENCODING 322
SWIDTH 120 0
DWIDTH 1 0
BBX 1 5 0 0
BITMAP
40
40
80
80
40
ENDCHAR
STARTCHAR Nacute
ENCODING 323
SWIDTH 609 0
DWIDTH 5 0
BBX 5 6 0 0
BITMAP
0400
0000
8100
9040
5040
4A40
ENDCHAR
STARTCHAR nacute
ENCODING 324
SWIDTH 459 0
DWIDTH 4 0
BBX 4 5 0 0
BITMAP
10
14
84
81
41
ENDCHAR
STARTCHAR Ncommaaccent
ENCODING 325
SWIDTH 609 0
DWIDTH 5 0
BBX 5 7 0 -3
BITMAP
8100
9040
5040
4A40
0000
0400
0400
ENDCHAR
STARTCHAR ncommaaccent
ENCODING 326
SWIDTH 459 0
DWIDTH 4 0
BBX 4 7 0 -3
BITMAP
14
84
81
41
00
10
10
ENDCHAR
STARTCHAR Ncaron
ENCODING 327
SWIDTH 609 0
DWIDTH 5 0
BBX 5 6 0 0
BITMAP
0900
0000
8100
9040
5040
4A40
ENDCHAR
STARTCHAR ncaron
ENCODING 328
SWIDTH 459 0
DWIDTH 4 0
BBX 4 5 0 0
BITMAP
14
14
84
81
41
ENDCHAR
STARTCHAR napostrophe
ENCODING 329
SWIDTH 459 0
DWIDTH 4 0
BBX 4 5 0 0
BITMAP
50
54
84
81
41
ENDCHAR
STARTCHAR Omacron
ENCODING 332
SWIDTH 609 0
DWIDTH 5 0
BBX 5 6 0 0
BITMAP
1500
0000
5500
4140
4040
2540
ENDCHAR
STARTCHAR omacron
ENCODING 333
SWIDTH 487 0
DWIDTH 4 0
BBX 4 5 0 0
BITMAP
14
14
55
41
59
ENDCHAR
STARTCHAR Obreve
ENCODING 334
SWIDTH 609 0
DWIDTH 5 0
BBX 5 5 0 0
BITMAP
0400
5500
4140
4040
2540
ENDCHAR
STARTCHAR obreve
ENCODING 335
SWIDTH 487 0
DWIDTH 4 0
BBX 4 5 0 0
BITMAP
14
14
55
41
59
ENDCHAR
STARTCHAR Ohungarumlaut
ENCODING 336
SWIDTH 609 0
DWIDTH 5 0
BBX 5 6 0 0
BITMAP
1400
0000
5500
4140
4040
2540
ENDCHAR
STARTCHAR ohungarumlaut
ENCODING 337
SWIDTH 487 0
DWIDTH 4 0
BBX 4 5 0 0
BITMAP
10
14
55
41
59
ENDCHAR
STARTCHAR OE
ENCODING 338
SWIDTH 848 0
DWIDTH 7 0
BBX 7 4 0 0
BITMAP
5650
4650
4100
2A54
ENDCHAR
STARTCHAR oe
ENCODING 339
SWIDTH 875 0
DWIDTH 7 0
BBX 7 5 0 -1
BITMAP
0550
5610
4240
5954
0010
ENDCHAR
STARTCHAR Racute
ENCODING 340
SWIDTH 579 0
DWIDTH 5 0
BBX 4 6 0 0
BITMAP
04
95
12
25
24
15
ENDCHAR
STARTCHAR racute
ENCODING 341
SWIDTH 346 0
DWIDTH 3 0
BBX 3 5 0 0
BITMAP
10
54
40
40
40
ENDCHAR
STARTCHAR Rcommaaccent
ENCODING 342
SWIDTH 579 0
DWIDTH 5 0
BBX 4 8 0 -3
BITMAP
95
12
25
24
15
00
04
04
ENDCHAR
STARTCHAR rcommaaccent
ENCODING 343
SWIDTH 346 0
DWIDTH 3 0
BBX 3 7 0 -3
BITMAP
54
40
40
40
00
10
10
ENDCHAR
STARTCHAR Rcaron
ENCODING 344
SWIDTH 579 0
DWIDTH 5 0
BBX 4 7 0 0
BITMAP
14
04
95
12
25
24
15
ENDCHAR
STARTCHAR rcaron
ENCODING 345
SWIDTH 346 0
DWIDTH 3 0
BBX 3 5 0 0
BITMAP
54
54
40
40
40
ENDCHAR
STARTCHAR Sacute
ENCODING 346
SWIDTH 627 0
DWIDTH 5 0
BBX 5 6 0 0
BITMAP
0400
1500
1000
0500
4140
5540
ENDCHAR
STARTCHAR sacute
ENCODING 347
SWIDTH 514 0
DWIDTH 4 0
BBX 4 6 0 0
BITMAP
04
10
54
44
15
56
ENDCHAR
STARTCHAR Scircumflex
ENCODING 348
SWIDTH 627 0
DWIDTH 5 0
BBX 5 7 0 0
BITMAP
0900
1100
1500
1000
0500
4140
5540
ENDCHAR
STARTCHAR scircumflex
ENCODING 349
SWIDTH 514 0
DWIDTH 4 0
BBX 4 6 0 0
BITMAP
14
14
54
44
15
56
ENDCHAR
STARTCHAR Scedilla
ENCODING 350
SWIDTH 627 0
DWIDTH 5 0
BBX 5 8 0 -3
BITMAP
1500
1000
0500
4140
5540
1400
0500
0400
ENDCHAR
STARTCHAR scedilla
ENCODING 351
SWIDTH 514 0
DWIDTH 4 0
BBX 4 7 0 -3
BITMAP
54
44
15
56
10
14
14
ENDCHAR
STARTCHAR Scaron
ENCODING 352
SWIDTH 627 0
DWIDTH 5 0
BBX 5 6 0 0
BITMAP
0500
1500
1000
0500
4140
5540
ENDCHAR
STARTCHAR scaron
ENCODING 353
SWIDTH 514 0
DWIDTH 4 0
BBX 4 5 0 0
BITMAP
14
54
44
15
56
ENDCHAR
STARTCHAR Tcommaaccent
ENCODING 354
SWIDTH 581 0
DWIDTH 5 0
BBX 5 7 0 -2
BITMAP
5940
0400
0400
0500
0100
0000
0100
ENDCHAR
STARTCHAR tcommaaccent
ENCODING 355
SWIDTH 328 0
DWIDTH 3 0
BBX 2 8 0 -3
BITMAP
10
20
60
20
10
00
10
10
ENDCHAR
STARTCHAR Tcaron
ENCODING 356
SWIDTH 581 0
DWIDTH 5 0
BBX 5 6 0 0
BITMAP
1800
5940
0400
0400
0500
0100
ENDCHAR
STARTCHAR tcaron
ENCODING 357
SWIDTH 431 0
DWIDTH 3 0
BBX 4 5 0 0
BITMAP
11
20
60
20
10
ENDCHAR
STARTCHAR Utilde
ENCODING 360
SWIDTH 571 0
DWIDTH 5 0
BBX 5 6 0 0
BITMAP
1500
0400
4100
4100
4200
2540
ENDCHAR
STARTCHAR utilde
ENCODING 361
SWIDTH 501 0
DWIDTH 4 0
BBX 4 6 0 0
BITMAP
10
14
40
41
45
15
ENDCHAR
STARTCHAR Umacron
ENCODING 362
SWIDTH 571 0
DWIDTH 5 0
BBX 5 6 0 0
BITMAP
1400
0000
4100
4100
4200
2540
ENDCHAR
STARTCHAR umacron
ENCODING 363
SWIDTH 501 0
DWIDTH 4 0
BBX 4 5 0 0
BITMAP
14
40
41
45
15
ENDCHAR
STARTCHAR Ubreve
ENCODING 364
SWIDTH 571 0
DWIDTH 5 0
BBX 5 5 0 0
BITMAP
0400
4100
4100
4200
2540
ENDCHAR
STARTCHAR ubreve
ENCODING 365
SWIDTH 501 0
DWIDTH 4 0
BBX 4 5 0 0
BITMAP
14
40
41
45
15
ENDCHAR
STARTCHAR Uring
ENCODING 366
SWIDTH 571 0
DWIDTH 5 0
BBX 5 6 0 0
BITMAP
1400
0400
4100
4100
4200
2540
ENDCHAR
STARTCHAR uring
ENCODING 367
SWIDTH 501 0
DWIDTH 4 0
BBX 4 5 0 0
BITMAP
14
54
41
45
15
ENDCHAR
STARTCHAR Uhungarumlaut
ENCODING 368
SWIDTH 571 0
DWIDTH 5 0
BBX 5 6 0 0
BITMAP
1400
0000
4100
4100
4200
2540
ENDCHAR
STARTCHAR uhungarumlaut
ENCODING 369
SWIDTH 501 0
DWIDTH 4 0
BBX 4 5 0 0
BITMAP
14
40
41
45
15
ENDCHAR
STARTCHAR Uogonek
ENCODING 370
SWIDTH 571 0
DWIDTH 5 0
BBX 5 6 0 -2
BITMAP
4100
4100
4100
5640
1500
0040
ENDCHAR
STARTCHAR uogonek
ENCODING 371
SWIDTH 501 0
DWIDTH 4 0
BBX 4 5 0 -1
BITMAP
40
41
45
16
05
ENDCHAR
STARTCHAR Wcircumflex
ENCODING 372
SWIDTH 703 0
DWIDTH 6 0
BBX 6 7 0 0
BITMAP
0500
0500
0000
4040
4450
4810
6680
ENDCHAR
STARTCHAR wcircumflex
ENCODING 373
SWIDTH 656 0
DWIDTH 5 0
BBX 5 6 0 0
BITMAP
0800
1500
0000
4440
4840
6A80
ENDCHAR
STARTCHAR Ycircumflex
ENCODING 374
SWIDTH 403 0
DWIDTH 3 0
BBX 3 7 0 0
BITMAP
24
44
44
68
04
10
10
ENDCHAR
STARTCHAR ycircumflex
ENCODING 375
SWIDTH 487 0
DWIDTH 4 0
BBX 4 10 0 -4
BITMAP
14
14
00
41
42
16
01
01
41
28
ENDCHAR
STARTCHAR Ydieresis
ENCODING 376
SWIDTH 403 0
DWIDTH 3 0
BBX 3 6 0 0
BITMAP
54
44
68
04
10
10
ENDCHAR
STARTCHAR Zacute
ENCODING 377
SWIDTH 571 0
DWIDTH 5 0
BBX 5 7 0 0
BITMAP
0400
0000
5400
0400
1900
0400
2640
ENDCHAR
STARTCHAR zacute
ENCODING 378
SWIDTH 459 0
DWIDTH 4 0
BBX 4 6 0 0
BITMAP
10
10
54
18
60
69
ENDCHAR
STARTCHAR Zdotaccent
ENCODING 379
SWIDTH 571 0
DWIDTH 5 0
BBX 5 6 0 0
BITMAP
1000
5400
0400
1900
0400
2640
ENDCHAR
STARTCHAR zdotaccent
ENCODING 380
SWIDTH 459 0
DWIDTH 4 0
BBX 4 5 0 0
BITMAP
10
54
18
60
69
ENDCHAR
STARTCHAR Zcaron
ENCODING 381
SWIDTH 571 0
DWIDTH 5 0
BBX 5 6 0 0
BITMAP
1400
5400
0400
1900
0400
2640
ENDCHAR
STARTCHAR zcaron
ENCODING 382
SWIDTH 459 0
DWIDTH 4 0
BBX 4 6 0 0
BITMAP
14
10
54
18
60
69
ENDCHAR
STARTCHAR florin
ENCODING 402
SWIDTH 376 0
DWIDTH 3 0
BBX 5 8 -1 -2
BITMAP
0500
0440
1400
2900
0400
0400
0400
6400
ENDCHAR
STARTCHAR AEacute
ENCODING 508
SWIDTH 960 0
DWIDTH 8 0
BBX 8 7 0 0
BITMAP
0040
1500
4194
4140
9694
4140
41A9
ENDCHAR
STARTCHAR aeacute
ENCODING 509
SWIDTH 881 0
DWIDTH 7 0
BBX 7 6 0 0
BITMAP
0100
0100
1550
1620
4240
6A54
ENDCHAR
STARTCHAR Oslashacute
ENCODING 510
SWIDTH 609 0
DWIDTH 5 0
BBX 5 7 0 -1
BITMAP
0400
0000
5900
4540
4440
2940
1000
ENDCHAR
STARTCHAR oslashacute
ENCODING 511
SWIDTH 487 0
DWIDTH 4 0
BBX 4 5 0 0
BITMAP
04
14
59
55
69
ENDCHAR
STARTCHAR Scommaaccent
ENCODING 536
SWIDTH 627 0
DWIDTH 5 0
BBX 5 8 0 -3
BITMAP
1500
1000
0500
4140
5540
0000
0400
0400
ENDCHAR
STARTCHAR scommaaccent
ENCODING 537
SWIDTH 514 0
DWIDTH 4 0
BBX 4 6 0 -2
BITMAP
54
44
15
56
00
04
ENDCHAR
STARTCHAR circumflex
ENCODING 710
SWIDTH 375 0
DWIDTH 3 0
BBX 3 2 0 4
BITMAP
20
54
ENDCHAR
STARTCHAR caron
ENCODING 711
SWIDTH 375 0
DWIDTH 3 0
BBX 2 1 1 4
BITMAP
50
ENDCHAR
STARTCHAR breve
ENCODING 728
SWIDTH 224 0
DWIDTH 2 0
BBX 2 1 0 3
BITMAP
50
ENDCHAR
STARTCHAR dotaccent
ENCODING 729
SWIDTH 152 0
DWIDTH 1 0
BBX 1 1 0 4
BITMAP
40
ENDCHAR
STARTCHAR ring
ENCODING 730
SWIDTH 333 0
DWIDTH 3 0
BBX 1 2 1 3
BITMAP
40
40
ENDCHAR
STARTCHAR ogonek
ENCODING 731
SWIDTH 254 0
DWIDTH 2 0
BBX 1 1 0 -1
BITMAP
40
ENDCHAR
STARTCHAR tilde
ENCODING 732
SWIDTH 402 0
DWIDTH 3 0
BBX 3 2 0 3
BITMAP
40
54
ENDCHAR
STARTCHAR hungarumlaut
ENCODING 733
SWIDTH 264 0
DWIDTH 2 0
BBX 2 2 0 3
BITMAP
50
50
ENDCHAR
STARTCHAR Wgrave
ENCODING 7808
SWIDTH 703 0
DWIDTH 6 0
BBX 6 6 0 0
BITMAP
0400
0000
4040
4450
4810
6680
ENDCHAR
STARTCHAR wgrave
ENCODING 7809
SWIDTH 656 0
DWIDTH 5 0
BBX 5 5 0 0
BITMAP
0400
0000
4440
4840
6A80
ENDCHAR
STARTCHAR Wacute
ENCODING 7810
SWIDTH 703 0
DWIDTH 6 0
BBX 6 6 0 0
BITMAP
0400
0400
4040
4450
4810
6680
ENDCHAR
STARTCHAR wacute
ENCODING 7811
SWIDTH 656 0
DWIDTH 5 0
BBX 5 5 0 0
BITMAP
0400
0000
4440
4840
6A80
ENDCHAR
STARTCHAR Wdieresis
ENCODING 7812
SWIDTH 703 0
DWIDTH 6 0
BBX 6 6 0 0
BITMAP
0500
0500
4040
4450
4810
6680
ENDCHAR
STARTCHAR wdieresis
ENCODING 7813
SWIDTH 656 0
DWIDTH 5 0
BBX 5 4 0 0
BITMAP
1500
4440
4840
6A80
ENDCHAR
STARTCHAR Ygrave
ENCODING 7922
SWIDTH 403 0
DWIDTH 3 0
BBX 3 7 0 0
BITMAP
10
10
44
68
04
10
10
ENDCHAR
STARTCHAR ygrave
ENCODING 7923
SWIDTH 487 0
DWIDTH 4 0
BBX 4 8 0 -4
BITMAP
04
41
42
16
01
01
41
28
ENDCHAR
STARTCHAR endash
ENCODING 8211
SWIDTH 287 0
DWIDTH 2 0
BBX 2 1 0 2
BITMAP
50
ENDCHAR
STARTCHAR emdash
ENCODING 8212
SWIDTH 512 0
DWIDTH 4 0
BBX 4 1 0 2
BITMAP
55
ENDCHAR
STARTCHAR quoteleft
ENCODING 8216
SWIDTH 102 0
DWIDTH 1 0
BBX 1 2 0 4
BITMAP
40
40
ENDCHAR
STARTCHAR quoteright
ENCODING 8217
SWIDTH 102 0
DWIDTH 1 0
BBX 1 2 0 4
BITMAP
40
40
ENDCHAR
STARTCHAR quotesinglbase
ENCODING 8218
SWIDTH 102 0
DWIDTH 1 0
BBX 1 2 0 0
BITMAP
40
40
ENDCHAR
STARTCHAR quotedblleft
ENCODING 8220
SWIDTH 234 0
DWIDTH 2 0
BBX 2 2 0 4
BITMAP
50
50
ENDCHAR
STARTCHAR quotedblright
ENCODING 8221
SWIDTH 234 0
DWIDTH 2 0
BBX 2 2 0 4
BITMAP
50
50
ENDCHAR
STARTCHAR quotedblbase
ENCODING 8222
SWIDTH 341 0
DWIDTH 3 0
BBX 2 2 0 -1
BITMAP
50
20
ENDCHAR
STARTCHAR dagger
ENCODING 8224
SWIDTH 375 0
DWIDTH 3 0
BBX 3 5 0 0
BITMAP
10
64
10
10
10
ENDCHAR
STARTCHAR daggerdbl
ENCODING 8225
SWIDTH 375 0
DWIDTH 3 0
BBX 3 6 0 0
BITMAP
10
10
64
64
10
10
ENDCHAR
STARTCHAR bullet
ENCODING 8226
SWIDTH 341 0
DWIDTH 3 0
BBX 1 2 1 1
BITMAP
80
80
ENDCHAR
STARTCHAR ellipsis
ENCODING 8230
SWIDTH 612 0
DWIDTH 5 0
BBX 5 2 0 0
BITMAP
4440
9980
ENDCHAR
STARTCHAR guilsinglleft
ENCODING 8249
SWIDTH 487 0
DWIDTH 4 0
BBX 3 3 0 0
BITMAP
04
50
54
ENDCHAR
STARTCHAR guilsinglright
ENCODING 8250
SWIDTH 403 0
DWIDTH 3 0
BBX 3 4 0 0
BITMAP
40
18
14
50
ENDCHAR
STARTCHAR fraction
ENCODING 8260
SWIDTH 309 0
DWIDTH 2 0
BBX 3 6 0 0
BITMAP
04
10
10
10
40
40
ENDCHAR
STARTCHAR Euro
ENCODING 8364
SWIDTH 741 0
DWIDTH 6 0
BBX 6 6 0 0
BITMAP
0040
0600
6500
6500
1000
0590
ENDCHAR
STARTCHAR trademark
ENCODING 8482
SWIDTH 1116 0
DWIDTH 9 0
BBX 9 5 0 0
BITMAP
599040
042640
041040
051080
011080
ENDCHAR
STARTCHAR minus
ENCODING 8722
SWIDTH 287 0
DWIDTH 2 0
BBX 2 1 0 2
BITMAP
50
ENDCHAR
STARTCHAR commaaccent
ENCODING 63171
SWIDTH 375 0
DWIDTH 3 0
BBX 1 2 1 -3
BITMAP
40
40
ENDCHAR
STARTCHAR fi
ENCODING 64257
SWIDTH 551 0
DWIDTH 4 0
BBX 4 6 0 0
BITMAP
14
15
50
A8
25
15
ENDCHAR
STARTCHAR fl
ENCODING 64258
SWIDTH 723 0
DWIDTH 6 0
BBX 4 6 0 0
BITMAP
14
15
54
A8
24
18
ENDCHAR
STARTCHAR .notdef
ENCODING -1
SWIDTH 375 0
DWIDTH 3 0
BBX 1 1 0 0
BITMAP
00
ENDCHAR
STARTCHAR .null
ENCODING -1
SWIDTH 0 0
DWIDTH 0 0
BBX 1 1 0 0
BITMAP
00
ENDCHAR
STARTCHAR nonmarkingreturn
ENCODING -1
SWIDTH 375 0
DWIDTH 3 0
BBX 1 1 0 0
BITMAP
00
ENDCHAR
ENDFONT
